<?xml version="1.0" encoding="UTF-8"?> <svg xmlns="http://www.w3.org/2000/svg" width="148" height="48" viewBox="0 0 148 48" fill="none"><path d="M0 24C0 10.7452 10.7452 0 24 0C37.2548 0 48 10.7452 48 24C48 37.2548 37.2548 48 24 48C10.7452 48 0 37.2548 0 24Z" fill="url(#paint0_linear_1066_3686)"></path><path d="M74.2576 30.4218L73.6772 33.7344H63.5837L64.1641 30.4218H74.2576ZM68.5243 13.1228L64.9427 33.7344H60.7949L64.3623 13.1228H68.5243ZM82.6381 18.4173L79.9909 33.7344H75.9988L78.6602 18.4173H82.6381ZM79.099 14.496C79.0801 13.8542 79.2878 13.3399 79.7219 12.9529C80.1655 12.566 80.6987 12.3678 81.3216 12.3584C81.9161 12.3489 82.4352 12.5282 82.8787 12.8963C83.3223 13.2549 83.5441 13.741 83.5441 14.3544C83.563 14.9962 83.3506 15.5105 82.9071 15.8974C82.4635 16.2844 81.935 16.4826 81.3216 16.492C80.727 16.5014 80.2079 16.3268 79.7644 15.9682C79.3302 15.6096 79.1085 15.1188 79.099 14.496ZM89.1783 21.9139L87.1256 33.7344H83.1336L85.7949 18.4173H89.5322L89.1783 21.9139ZM88.0033 25.5379L87.0124 25.5662C87.1162 24.6508 87.3238 23.7447 87.6353 22.8482C87.9467 21.9516 88.3714 21.1447 88.9093 20.4275C89.4567 19.7008 90.1221 19.1298 90.9054 18.7145C91.6981 18.2993 92.6183 18.1011 93.6658 18.12C94.5152 18.1483 95.2136 18.3276 95.761 18.6579C96.3178 18.9788 96.7425 19.4129 97.035 19.9603C97.337 20.5077 97.5305 21.1258 97.6155 21.8148C97.7098 22.5037 97.7193 23.221 97.6438 23.9665L96.0016 33.7344H91.9954L93.6517 23.9241C93.7083 23.4239 93.6942 22.9803 93.6092 22.5934C93.5243 22.2064 93.3355 21.8997 93.043 21.6732C92.7598 21.4467 92.3446 21.3287 91.7972 21.3193C91.1932 21.3004 90.6694 21.4137 90.2259 21.6591C89.7917 21.9044 89.4237 22.2347 89.1217 22.65C88.8197 23.0652 88.579 23.523 88.3997 24.0232C88.2204 24.5233 88.0883 25.0283 88.0033 25.5379ZM111.036 18.4173H114.688L112.154 33.2106C111.965 34.6168 111.498 35.8154 110.752 36.8063C110.007 37.7972 109.058 38.5475 107.907 39.0571C106.765 39.5668 105.496 39.8074 104.099 39.7791C103.42 39.7602 102.749 39.6564 102.089 39.4677C101.428 39.2789 100.81 39.0005 100.234 38.6325C99.6587 38.2738 99.1585 37.8255 98.7338 37.2876L100.702 34.9377C101.117 35.485 101.608 35.9097 102.174 36.2117C102.74 36.5232 103.368 36.6883 104.057 36.7072C104.793 36.7261 105.444 36.5939 106.01 36.3108C106.576 36.0277 107.044 35.6266 107.412 35.1075C107.78 34.5885 108.025 33.9703 108.148 33.2531L110.101 21.7581L111.036 18.4173ZM99.7247 26.3589L99.7672 26.0617C99.8805 25.099 100.107 24.1458 100.447 23.2021C100.786 22.2489 101.244 21.3854 101.82 20.6115C102.396 19.8376 103.099 19.2242 103.929 18.7712C104.76 18.3182 105.727 18.1058 106.831 18.1341C107.85 18.1624 108.676 18.4173 109.309 18.8986C109.941 19.3705 110.422 19.9886 110.752 20.7531C111.083 21.5081 111.3 22.3291 111.404 23.2162C111.517 24.1034 111.555 24.9669 111.517 25.8068L111.446 26.4722C111.295 27.3216 111.045 28.1945 110.696 29.0911C110.347 29.9877 109.894 30.8182 109.337 31.5826C108.78 32.3376 108.11 32.9416 107.327 33.3946C106.553 33.8476 105.67 34.06 104.679 34.0317C103.651 34.0033 102.797 33.7533 102.117 33.2814C101.447 32.8095 100.919 32.2008 100.532 31.4552C100.154 30.7002 99.904 29.8791 99.7814 28.992C99.6587 28.0955 99.6398 27.2178 99.7247 26.3589ZM103.759 26.0475L103.717 26.3589C103.67 26.7836 103.651 27.2508 103.66 27.7604C103.679 28.2606 103.755 28.7419 103.887 29.2044C104.028 29.6668 104.259 30.049 104.58 30.351C104.901 30.6436 105.345 30.7993 105.911 30.8182C106.657 30.8559 107.294 30.7002 107.822 30.351C108.36 30.0018 108.789 29.5394 109.11 28.9637C109.431 28.3786 109.653 27.7604 109.776 27.1092L110.045 25.2264C110.082 24.7734 110.078 24.3204 110.031 23.8674C109.983 23.4144 109.87 22.9992 109.691 22.6217C109.521 22.2442 109.266 21.9375 108.926 21.7015C108.596 21.4656 108.157 21.3429 107.61 21.3335C106.977 21.3051 106.43 21.4373 105.968 21.7298C105.515 22.0224 105.137 22.4093 104.835 22.8907C104.533 23.3625 104.293 23.8769 104.113 24.4337C103.934 24.9905 103.816 25.5284 103.759 26.0475ZM115.778 26.3165L115.82 26.0192C115.934 24.9339 116.193 23.9146 116.599 22.9614C117.014 21.9988 117.562 21.1541 118.241 20.4275C118.93 19.6913 119.737 19.1204 120.662 18.7145C121.596 18.2993 122.644 18.1058 123.805 18.1341C124.909 18.153 125.862 18.3748 126.664 18.7995C127.466 19.2242 128.122 19.7951 128.632 20.5124C129.151 21.2296 129.514 22.0507 129.722 22.9756C129.939 23.9005 130 24.8773 129.906 25.9059L129.878 26.2174C129.755 27.2933 129.481 28.3078 129.057 29.261C128.641 30.2047 128.089 31.04 127.4 31.7666C126.721 32.4839 125.914 33.0454 124.98 33.4512C124.045 33.8571 123.007 34.0458 121.865 34.0175C120.78 33.9986 119.831 33.7816 119.02 33.3663C118.208 32.9416 117.548 32.3754 117.038 31.6676C116.528 30.9503 116.17 30.134 115.962 29.2185C115.754 28.3031 115.693 27.3357 115.778 26.3165ZM119.798 26.0192L119.77 26.3306C119.723 26.7836 119.709 27.2697 119.728 27.7887C119.746 28.2984 119.827 28.7844 119.968 29.2468C120.119 29.7093 120.365 30.0868 120.704 30.3793C121.044 30.6719 121.511 30.8276 122.106 30.8465C122.738 30.8654 123.281 30.738 123.734 30.4643C124.187 30.1906 124.56 29.8225 124.852 29.3601C125.145 28.8882 125.376 28.3786 125.546 27.8312C125.716 27.2744 125.829 26.7317 125.886 26.2032L125.914 25.9059C125.952 25.4529 125.961 24.9669 125.942 24.4478C125.933 23.9193 125.853 23.4239 125.702 22.9614C125.551 22.4896 125.305 22.1026 124.965 21.8006C124.626 21.4986 124.159 21.3382 123.564 21.3193C122.932 21.291 122.389 21.4231 121.936 21.7157C121.483 21.9988 121.11 22.3763 120.818 22.8482C120.525 23.3201 120.294 23.8344 120.124 24.3912C119.964 24.948 119.855 25.4907 119.798 26.0192ZM147.771 13.1228L147.403 15.5152L136.899 33.7344H132.539L143.001 16.308H133.119L133.629 13.1228H147.771Z" fill="white"></path><path d="M22.6638 17.4485C25.3541 14.4235 27.62 11.2739 29.4615 8L22.345 8C21.159 10.1443 19.808 12.193 18.292 14.1458C16.7518 16.1179 15.0356 18.042 13.1432 19.9183C11.2509 21.7946 9.20315 23.6614 7 25.5185L9.24009 28.8689H22.2695L23.987 26.8699L25.3674 25.2888H14.3841C17.4004 22.8902 20.1603 20.2768 22.6638 17.4485Z" fill="white"></path><path d="M25.8524 29.8005C23.1621 32.8256 20.8962 35.975 19.0547 39.249H26.1712C27.3572 37.1046 28.7082 35.056 30.2242 33.1031C31.7644 31.1311 33.4806 29.207 35.3729 27.3307C37.2653 25.4544 39.313 23.5877 41.5162 21.7305L39.2761 18.3801L26.2736 18.6961L23.1488 21.9602L34.1321 21.9602C31.1158 24.3588 28.3559 26.9723 25.8524 29.8005Z" fill="white"></path><defs><linearGradient id="paint0_linear_1066_3686" x1="0" y1="24" x2="48" y2="24" gradientUnits="userSpaceOnUse"><stop stop-color="#07D494"></stop><stop offset="0.0666667" stop-color="#07D494"></stop><stop offset="0.133333" stop-color="#07D395"></stop><stop offset="0.2" stop-color="#06D396"></stop><stop offset="0.266667" stop-color="#06D198"></stop><stop offset="0.333333" stop-color="#05D09B"></stop><stop offset="0.4" stop-color="#05CE9E"></stop><stop offset="0.466667" stop-color="#04CCA1"></stop><stop offset="0.533333" stop-color="#03CAA5"></stop><stop offset="0.6" stop-color="#02C8A8"></stop><stop offset="0.666667" stop-color="#02C6AB"></stop><stop offset="0.733333" stop-color="#01C5AE"></stop><stop offset="0.8" stop-color="#01C3B0"></stop><stop offset="0.866667" stop-color="#00C3B1"></stop><stop offset="0.933333" stop-color="#00C2B2"></stop><stop offset="1" stop-color="#00C2B2"></stop></linearGradient></defs></svg> 